# AST/ASF file generated using VICON BodyLanguage
# -----------------------------------------------
:version 1.10
:name VICON
:units
  mass 1.0
  length 0.45
  angle deg
:documentation
   .ast/.asf automatically generated from VICON data using
   VICON BodyBuilder and BodyLanguage model FoxedUp or BRILLIANT.MOD
:root
   order TX TY TZ RX RY RZ
   axis XYZ
   position 0 0 0  
   orientation 0 0 0 
:bonedata
  begin
     id 1 
     name lhipjoint
     direction 0.692814 -0.645514 0.321437 
     length 2.38754 
     axis 0 0 0  XYZ
  end
  begin
     id 2 
     name lfemur
     direction 0.34202 -0.939693 0  
     length 6.41921  
     axis 0 0 20  XYZ
    dof rx ry rz
    limits (-160.0 20.0)
           (-70.0 70.0)
           (-60.0 70.0)
  end
  begin
     id 3 
     name ltibia
     direction 0.34202 -0.939693 0   
     length 6.98247   
     axis 0 0 20   XYZ
    dof rx
    limits (-10.0 170.0)
  end
  begin
     id 4 
     name lfoot
     direction 0.0947186 -0.260237 0.960888   
     length 1.83034   
     axis -90 7.62852e-016 20   XYZ
    dof rx rz
    limits (-45.0 90.0)
           (-70.0 20.0)
  end
  begin
     id 5 
     name ltoes
     direction 1.53538e-011 -4.21952e-011 1   
     length 0.920499   
     axis -90 7.62852e-016 20   XYZ
    dof rx
    limits (-90.0 20.0)
  end
  begin
     id 6 
     name rhipjoint
     direction -0.631686 -0.693949 0.345555   
     length 2.2209  
     axis 0 0 0  XYZ 
  end
  begin
     id 7 
     name rfemur
     direction -0.34202 -0.939693 0   
     length 6.49542   
     axis 0 0 -20   XYZ
    dof rx ry rz
    limits (-160.0 20.0)
           (-70.0 70.0)
           (-70.0 60.0)
  end
  begin
     id 8 
     name rtibia
     direction -0.34202 -0.939693 0   
     length 7.21712   
     axis 0 0 -20   XYZ
    dof rx
    limits (-10.0 170.0)
 end
 begin
     id 9 
     name rfoot
     direction -0.0825378 -0.226771 0.970444   
     length 1.89724  
     axis -90 -7.62852e-016 -20   XYZ
    dof rx rz
    limits (-45.0 90.0)
           (-20.0 70.0)
  end
  begin
     id 10 
     name rtoes
     direction -1.53515e-011 -4.22016e-011 1   
     length 0.955868   
     axis -90 -7.62852e-016 -20   XYZ
    dof rx
    limits (-90.0 20.0)
  end
  begin
     id 11 
     name lowerback
     direction -0.0104711 0.984802 -0.173368   
     length 1.84931   
     axis 0 0 0   XYZ
    dof rx ry rz
    limits (-20.0 45.0)
           (-30.0 30.0)
           (-30.0 30.0)
  end
  begin
     id 12 
     name upperback
     direction -0.00286433 0.999996 -0.000382853   
     length 1.85768   
     axis 0 0 0   XYZ
    dof rx ry rz
    limits (-20.0 45.0)
           (-30.0 30.0)
           (-30.0 30.0)
  end
  begin
     id 13 
     name thorax
     direction 0.00167534 0.996793 0.0800069   
     length 1.92   
     axis 0 0 0   XYZ
    dof rx ry rz
    limits (-20.0 45.0)
           (-30.0 30.0)
           (-30.0 30.0)
  end
  begin
     id 14 
     name lowerneck
     direction -0.0672491 0.995415 0.068018   
     length 1.58923   
     axis 0 0 0   XYZ
    dof rx ry rz
    limits (-20.0 45.0)
           (-30.0 30.0)
           (-30.0 30.0)
  end
  begin
     id 15 
     name upperneck
     direction 0.0958019 0.982476 -0.159884   
     length 1.60189   
     axis 0 0 0   XYZ
    dof rx ry rz
    limits (-20.0 45.0)
           (-30.0 30.0)
           (-30.0 30.0)
  end
  begin
     id 16
     name head
     direction 0.032989 0.997338 -0.0650226  
     length 1.61681  
     axis 0 0 0   XYZ
    dof rx ry rz
    limits (-20.0 45.0)
           (-30.0 30.0)
           (-30.0 30.0)
  end
  begin
     id 17 
     name lclavicle
     direction 0.954279 0.298875 -0.00496069  
     length 2.99449  
     axis 0 0 0   XYZ
    dof ry rz
    limits (-20.0 10.0)
           (0.0 20.0)
  end
  begin
     id 18 
     name lhumerus
     direction 1 -4.48985e-011 -4.2057e-027   
     length 4.79185   
     axis 180 -30 -90   XYZ
    dof rx ry rz
    limits (-60.0 90.0)
           (-90.0 90.0)
           (-90.0 90.0)
  end
  begin
     id 19
     name lradius
     direction 1 -4.48945e-011 1.15441e-028   
     length 2.65553   
     axis 180 -30 -90   XYZ
    dof rx
    limits (-10.0 170.0)
  end
  begin
     id 20
     name lwrist
     direction 1 -4.4899e-011 4.8894e-028   
     length 1.32777   
     axis -2.56392e-016 90 90   XYZ
    dof ry
    limits (-180.0 0.0)
 end
  begin
     id 21 
     name lhand
     direction 1 -4.48908e-011 9.7788e-028   
     length 0.743904   
     axis -6.23971e-016 90 90   XYZ
    dof rx rz
    limits (-90.0 90.0)
           (-45.0 45.0)
  end
  begin
     id 22 
     name lfingers
     direction 1 -4.49068e-011 1.95576e-027   
     length 0.599754   
     axis -1.24794e-015 90 90   XYZ
    dof rx
    limits (0.0 90.0)
  end
  begin
     id 23
     name lthumb
     direction 0.707107 -6.34883e-011 0.707107   
     length 0.861131   
     axis -90 45 2.85299e-015   XYZ
    dof rx rz
    limits (-45.0 45.0)
           (-45.0 45.0)
  end
  begin
     id 24 
     name rclavicle
     direction -0.957921 0.286916 0.00811568   
     length 3.06817  
     axis 0 0 0   XYZ 
    dof ry rz
    limits (-10.0 20.0)
           (-20.0 0.0)
  end
  begin
     id 25 
     name rhumerus
     direction -1 -4.48971e-011 -3.07942e-027  
     length 4.77254   
     axis 180 30 90   XYZ
    dof rx ry rz
    limits (-90.0 60.0)
           (-90.0 90.0)
           (-90.0 90.0)
  end
  begin
     id 26 
     name rradius
     direction -1 -4.48957e-011 -9.6815e-028   
     length 2.75995   
     axis 180 30 90   XYZ
    dof rx
    limits (-10.0 170.0)
  end
  begin
     id 27 
     name rwrist
     direction -1 -4.48979e-011 4.8894e-028   
     length 1.37997   
     axis -2.56392e-016 -90 -90   XYZ
    dof ry
    limits (-180.0 0.0)
  end
  begin
     id 28
     name rhand
     direction -1 -4.48906e-011 9.7788e-028   
     length 0.701619   
     axis -6.23971e-016 -90 -90   XYZ
    dof rx rz
    limits (-90.0 90.0)
           (-45.0 45.0)
  end
  begin
     id 29
     name rfingers
     direction -1 -4.49018e-011 1.95576e-027   
     length 0.565663   
     axis -1.24794e-015 -90 -90   XYZ
    dof rx
    limits (0.0 90.0)
  end
  begin
     id 30
     name rthumb
     direction -0.707107 -6.34881e-011 0.707107   
     length 0.812183   
     axis -90 -45 -2.85299e-015   XYZ
    dof rx rz
    limits (-45.0 45.0)
           (-45.0 45.0)
  end
:hierarchy
  begin
    root lhipjoint rhipjoint lowerback
    lhipjoint lfemur
    lfemur ltibia
    ltibia lfoot
    lfoot ltoes
    rhipjoint rfemur
    rfemur rtibia
    rtibia rfoot
    rfoot rtoes
    lowerback upperback
    upperback thorax
    thorax lowerneck lclavicle rclavicle
    lowerneck upperneck
    upperneck head
    lclavicle lhumerus
    lhumerus lradius
    lradius lwrist
    lwrist lhand lthumb
    lhand lfingers
    rclavicle rhumerus
    rhumerus rradius
    rradius rwrist
    rwrist rhand rthumb
    rhand rfingers
  end

#!OML:ASF F:\VICON\USERDATA\INSTALL\rory3\rory3.ASF
:FULLY-SPECIFIED
:DEGREES
65
root -14.9301 15.5642 9.52644 -182.361 57.6893 -184.892
lowerback 10.6877 -0.587824 -4.47038
upperback -0.333992 -1.37526 -1.09058
thorax -6.28017 -0.530213 1.58807
lowerneck -13.9046 -6.56547 -9.89688
upperneck 28.9721 -7.33802 4.7098
head 12.4811 -3.45596 2.43747
rclavicle 7.04692e-014 -4.92986e-014
rhumerus -34.7099 -5.48624 -85.6515
rradius 22.2735
rwrist 19.2755
rhand -14.4223 16.1023
rfingers 7.12502
rthumb 11.7218 -13.5497
lclavicle 7.04692e-014 -4.92986e-014
lhumerus -32.1883 6.45723 84.6278
lradius 19.9455
lwrist -4.20823
lhand -11.5175 14.7587
lfingers 7.12502
lthumb 14.522 44.2304
rfemur -34.0732 9.4928 15.7608
rtibia 32.0544
rfoot -10.0775 -19.1924
rtoes -1.86092
lfemur 5.8394 -8.51187 -29.473
ltibia 14.3848
lfoot -17.427 7.92525
ltoes -5.47289
66
root -14.852 15.558 9.47934 -182.49 57.4721 -184.933
lowerback 10.745 -0.598328 -4.36163
upperback -0.307402 -1.37722 -1.08672
thorax -6.28643 -0.534677 1.53215
lowerneck -13.9741 -6.61053 -9.95665
upperneck 28.9515 -7.3966 4.75324
head 12.4975 -3.48298 2.45244
rclavicle -8.40362e-014 -2.18663e-014
rhumerus -35.0141 -5.43842 -85.5308
rradius 22.3514
rwrist 19.246
rhand -14.3578 14.9556
rfingers 7.12502
rthumb 11.7841 -14.6928
lclavicle -8.40362e-014 -2.18663e-014
lhumerus -32.3262 6.94499 84.4238
lradius 19.7925
lwrist -4.78626
lhand -11.295 14.8569
lfingers 7.12502
lthumb 14.7363 44.3131
rfemur -34.1276 9.51076 15.4906
rtibia 31.0794
rfoot -9.21395 -19.5527
rtoes -3.59809
lfemur 6.90351 -8.58594 -29.5853
ltibia 13.22
lfoot -17.0096 8.2807
ltoes -6.37851
67
root -14.7713 15.5501 9.43395 -182.817 57.2027 -185.345
lowerback 10.6187 -0.613411 -4.55492
upperback -0.260795 -1.41125 -1.09148
thorax -6.15947 -0.548125 1.63831
lowerneck -14.0594 -6.65316 -10.095
upperneck 28.9046 -7.45095 4.8647
head 12.5134 -3.50873 2.50645
rclavicle 1.2424e-015 5.96354e-016
rhumerus -35.2042 -5.77805 -85.1814
rradius 22.3276
rwrist 19.6045
rhand -14.27 14.7043
rfingers 7.12502
rthumb 11.8687 -14.9393
lclavicle 1.2424e-015 5.96354e-016
lhumerus -32.3568 7.3936 84.2963
lradius 19.5612
lwrist -5.17199
lhand -11.3635 14.644
lfingers 7.12502
lthumb 14.6703 44.105
rfemur -34.3012 9.40755 14.9896
rtibia 30.1379
rfoot -8.36433 -19.6941
rtoes -5.46
lfemur 7.84395 -8.65002 -29.8558
ltibia 12.06
lfoot -16.66 8.30709
ltoes -6.93348
68
root -14.6904 15.5437 9.38889 -183.15 56.8212 -185.765
lowerback 10.5818 -0.634152 -4.77414
upperback -0.264778 -1.46177 -1.05893
thorax -6.13392 -0.565925 1.80269
lowerneck -14.0121 -6.72124 -10.2871
upperneck 28.7614 -7.536 4.96664
head 12.4685 -3.55752 2.56249
rclavicle -4.84538e-015 2.3059e-014
rhumerus -35.4464 -5.97824 -84.7678
rradius 22.3069
rwrist 19.7389
rhand -14.2258 14.9097
rfingers 7.12502
rthumb 11.9114 -14.7315
lclavicle -4.84538e-015 2.3059e-014
lhumerus -32.4314 7.41513 84.4536
lradius 19.3766
lwrist -5.19012
lhand -11.5786 14.5824
lfingers 7.12502
lthumb 14.4631 44.0584
rfemur -34.4362 9.29394 14.4061
rtibia 29.2217
rfoot -8.0422 -19.762
rtoes -5.21727
lfemur 8.74452 -8.50925 -30.0518
ltibia 10.9495
lfoot -16.2752 7.64622
ltoes -5.98216
69
root -14.6078 15.5408 9.34287 -183.104 56.4689 -185.634
lowerback 10.6558 -0.654938 -4.62706
upperback -0.268568 -1.47301 -0.989175
thorax -6.18055 -0.574495 1.79671
lowerneck -13.9006 -6.77307 -10.3485
upperneck 28.5497 -7.62355 5.01447
head 12.3735 -3.60147 2.57626
rclavicle 6.65183e-014 -9.14409e-015
rhumerus -35.7644 -5.83723 -84.5739
rradius 22.3908
rwrist 19.4512
rhand -14.2322 14.9921
rfingers 7.12502
rthumb 11.9052 -14.6494
lclavicle 6.65183e-014 -9.14409e-015
lhumerus -32.4874 7.67449 84.4286
lradius 19.1077
lwrist -5.53569
lhand -11.5703 14.5603
lfingers 7.12502
lthumb 14.4711 44.0357
rfemur -34.4145 9.32421 14.1364
rtibia 28.3399
rfoot -7.92791 -19.9662
rtoes -4.49668
lfemur 9.78876 -8.63995 -29.9842
ltibia 9.78444
lfoot -15.8428 7.69362
ltoes -6.27236
70
root -14.5204 15.5362 9.30012 -182.86 56.1661 -185.319
lowerback 10.6401 -0.689006 -4.43828
upperback -0.257288 -1.4899 -0.897494
thorax -6.16045 -0.588912 1.78935
lowerneck -13.7445 -6.79403 -10.3643
upperneck 28.253 -7.68406 5.05846
head 12.2304 -3.6313 2.58529
rclavicle 1.04002e-013 -4.37326e-015
rhumerus -36.046 -5.64038 -84.4818
rradius 22.481
rwrist 19.1602
rhand -14.3739 14.8849
rfingers 7.12502
rthumb 11.7686 -14.7645
lclavicle 1.04002e-013 -4.37326e-015
lhumerus -32.5395 8.14884 84.2466
lradius 18.9288
lwrist -6.05118
lhand -11.5843 14.5479
lfingers 7.12502
lthumb 14.4575 44.0243
rfemur -34.403 9.42751 13.9994
rtibia 27.483
rfoot -7.58234 -20.1461
rtoes -4.53626
lfemur 10.8554 -8.7371 -29.7914
ltibia 8.5075
lfoot -15.3451 7.73544
ltoes -6.936
